#Comment line ignore any data following # character 
#Hierarchical Translation and Rotation (.htr) file 
[Header]	
#Header keywords are followed by a single value 
FileType HTR		#Single word string
DataType HTRS		#Translation followed by rotation and scale data
FileVersion 1		#integer
NumSegments 64		#integer
NumFrames 3		#integer
DataFrameRate 30		#integer, data frame rate in this file
EulerRotationOrder ZYX
CalibrationUnits mm
RotationUnits Degrees
GlobalAxisofGravity Y
BoneLengthAxis Y
ScaleFactor 1.00
[SegmentNames&Hierarchy]
#CHILD	PARENT
Pinger_Root GLOBAL
Pelvis Pinger_Root
L_Hip Pelvis
R_Hip Pelvis
Rear_Leg01 Pelvis
Spine1 Pelvis
L_Leg01 L_Hip
L_Leg02 L_Leg01
L_Leg03 L_Leg02
L_Foot L_Leg03
L_Toe1_01 L_Foot
L_Toe2_01 L_Foot
L_Toe3_01 L_Foot
planeAlignerLeft L_Foot
L_Toe1_02 L_Toe1_01
L_Toe1_03 L_Toe1_02
L_Toe2_02 L_Toe2_01
L_Toe2_03 L_Toe2_02
L_Toe3_02 L_Toe3_01
L_Toe3_03 L_Toe3_02
planeLockWeightLeft planeAlignerLeft
R_Leg01 R_Hip
R_Leg02 R_Leg01
R_Leg03 R_Leg02
R_Foot R_Leg03
planeAlignerRight R_Foot
R_Toe1_01 R_Foot
R_Toe2_01 R_Foot
R_Toe3_01 R_Foot
planeLockWeightRight planeAlignerRight
R_Toe1_02 R_Toe1_01
R_Toe1_03 R_Toe1_02
R_Toe2_02 R_Toe2_01
R_Toe2_03 R_Toe2_02
R_Toe3_02 R_Toe3_01
R_Toe3_03 R_Toe3_02
Rear_Leg02 Rear_Leg01
Rear_Leg03 Rear_Leg02
Rear_Leg04 Rear_Leg03
Rear_Foot Rear_Leg04
planeAlignerCenter Rear_Foot
Rear_Toe1_01 Rear_Foot
Rear_Toe2_01 Rear_Foot
Rear_Toe3_01 Rear_Foot
planeLockWeightCenter planeAlignerCenter
Rear_Toe1_02 Rear_Toe1_01
Rear_Toe1_03 Rear_Toe1_02
Rear_Toe2_02 Rear_Toe2_01
Rear_Toe2_03 Rear_Toe2_02
Rear_Toe3_02 Rear_Toe3_01
Rear_Toe3_03 Rear_Toe3_02
Back_Bone Spine1
Head Spine1
Motor_Bone Back_Bone
Ping_Mechanism Back_Bone
BN_LookIK Head
bottomMouth Head
L_Mouth01 Head
L_mouthFront Head
mouthGun Head
R_Mouth01 Head
R_mouthFront Head
TopMouth Head
weapon_bone Head
[BasePosition]
#SegmentName Tx, Ty, Tz, Rx, Ry, Rz, BoneLength
Pinger_Root 0.000000 0.000000 0.000000 -90.000000 0.000000 0.000000 10.000000 
Pelvis 0.000000 0.000000 0.000000 0.000000 0.000000 0.000000 10.000000 
L_Hip 0.000000 0.000000 0.000000 0.000000 0.000000 0.000000 10.000000 
R_Hip 0.000000 0.000000 0.000000 0.000000 0.000000 0.000000 10.000000 
Rear_Leg01 0.000000 0.000000 0.000000 0.000000 0.000000 0.000000 10.000000 
Spine1 0.000000 0.000000 0.000000 0.000000 0.000000 0.000000 10.000000 
L_Leg01 0.000000 0.000000 0.000000 0.000000 0.000000 0.000000 10.000000 
L_Leg02 0.000000 0.000000 0.000000 0.000000 0.000000 0.000000 10.000000 
L_Leg03 0.000000 0.000000 0.000000 0.000000 0.000000 0.000000 10.000000 
L_Foot 0.000000 0.000000 0.000000 0.000000 0.000000 0.000000 10.000000 
L_Toe1_01 0.000000 0.000000 0.000000 0.000000 0.000000 0.000000 10.000000 
L_Toe2_01 0.000000 0.000000 0.000000 0.000000 0.000000 0.000000 10.000000 
L_Toe3_01 0.000000 0.000000 0.000000 0.000000 0.000000 0.000000 10.000000 
planeAlignerLeft 0.000000 0.000000 0.000000 0.000000 0.000000 0.000000 10.000000 
L_Toe1_02 0.000000 0.000000 0.000000 0.000000 0.000000 0.000000 10.000000 
L_Toe1_03 0.000000 0.000000 0.000000 0.000000 0.000000 0.000000 10.000000 
L_Toe2_02 0.000000 0.000000 0.000000 0.000000 0.000000 0.000000 10.000000 
L_Toe2_03 0.000000 0.000000 0.000000 0.000000 0.000000 0.000000 10.000000 
L_Toe3_02 0.000000 0.000000 0.000000 0.000000 0.000000 0.000000 10.000000 
L_Toe3_03 0.000000 0.000000 0.000000 0.000000 0.000000 0.000000 10.000000 
planeLockWeightLeft 0.000000 0.000000 0.000000 0.000000 0.000000 0.000000 10.000000 
R_Leg01 0.000000 0.000000 0.000000 0.000000 0.000000 0.000000 10.000000 
R_Leg02 0.000000 0.000000 0.000000 0.000000 0.000000 0.000000 10.000000 
R_Leg03 0.000000 0.000000 0.000000 0.000000 0.000000 0.000000 10.000000 
R_Foot 0.000000 0.000000 0.000000 0.000000 0.000000 0.000000 10.000000 
planeAlignerRight 0.000000 0.000000 0.000000 0.000000 0.000000 0.000000 10.000000 
R_Toe1_01 0.000000 0.000000 0.000000 0.000000 0.000000 0.000000 10.000000 
R_Toe2_01 0.000000 0.000000 0.000000 0.000000 0.000000 0.000000 10.000000 
R_Toe3_01 0.000000 0.000000 0.000000 0.000000 0.000000 0.000000 10.000000 
planeLockWeightRight 0.000000 0.000000 0.000000 0.000000 0.000000 0.000000 10.000000 
R_Toe1_02 0.000000 0.000000 0.000000 0.000000 0.000000 0.000000 10.000000 
R_Toe1_03 0.000000 0.000000 0.000000 0.000000 0.000000 0.000000 10.000000 
R_Toe2_02 0.000000 0.000000 0.000000 0.000000 0.000000 0.000000 10.000000 
R_Toe2_03 0.000000 0.000000 0.000000 0.000000 0.000000 0.000000 10.000000 
R_Toe3_02 0.000000 0.000000 0.000000 0.000000 0.000000 0.000000 10.000000 
R_Toe3_03 0.000000 0.000000 0.000000 0.000000 0.000000 0.000000 10.000000 
Rear_Leg02 0.000000 0.000000 0.000000 0.000000 0.000000 0.000000 10.000000 
Rear_Leg03 0.000000 0.000000 0.000000 0.000000 0.000000 0.000000 10.000000 
Rear_Leg04 0.000000 0.000000 0.000000 0.000000 0.000000 0.000000 10.000000 
Rear_Foot 0.000000 0.000000 0.000000 0.000000 0.000000 0.000000 10.000000 
planeAlignerCenter 0.000000 0.000000 0.000000 0.000000 0.000000 0.000000 10.000000 
Rear_Toe1_01 0.000000 0.000000 0.000000 0.000000 0.000000 0.000000 10.000000 
Rear_Toe2_01 0.000000 0.000000 0.000000 0.000000 0.000000 0.000000 10.000000 
Rear_Toe3_01 0.000000 0.000000 0.000000 0.000000 0.000000 0.000000 10.000000 
planeLockWeightCenter 0.000000 0.000000 0.000000 0.000000 0.000000 0.000000 10.000000 
Rear_Toe1_02 0.000000 0.000000 0.000000 0.000000 0.000000 0.000000 10.000000 
Rear_Toe1_03 0.000000 0.000000 0.000000 0.000000 0.000000 0.000000 10.000000 
Rear_Toe2_02 0.000000 0.000000 0.000000 0.000000 0.000000 0.000000 10.000000 
Rear_Toe2_03 0.000000 0.000000 0.000000 0.000000 0.000000 0.000000 10.000000 
Rear_Toe3_02 0.000000 0.000000 0.000000 0.000000 0.000000 0.000000 10.000000 
Rear_Toe3_03 0.000000 0.000000 0.000000 0.000000 0.000000 0.000000 10.000000 
Back_Bone 0.000000 0.000000 0.000000 0.000000 0.000000 0.000000 10.000000 
Head 0.000000 0.000000 0.000000 0.000000 0.000000 0.000000 10.000000 
Motor_Bone 0.000000 0.000000 0.000000 0.000000 0.000000 0.000000 10.000000 
Ping_Mechanism 0.000000 0.000000 0.000000 0.000000 0.000000 0.000000 10.000000 
BN_LookIK 0.000000 0.000000 0.000000 0.000000 0.000000 0.000000 10.000000 
bottomMouth 0.000000 0.000000 0.000000 0.000000 0.000000 0.000000 10.000000 
L_Mouth01 0.000000 0.000000 0.000000 0.000000 0.000000 0.000000 10.000000 
L_mouthFront 0.000000 0.000000 0.000000 0.000000 0.000000 0.000000 10.000000 
mouthGun 0.000000 0.000000 0.000000 0.000000 0.000000 0.000000 10.000000 
R_Mouth01 0.000000 0.000000 0.000000 0.000000 0.000000 0.000000 10.000000 
R_mouthFront 0.000000 0.000000 0.000000 0.000000 0.000000 0.000000 10.000000 
TopMouth 0.000000 0.000000 0.000000 0.000000 0.000000 0.000000 10.000000 
weapon_bone 0.000000 0.000000 0.000000 0.000000 0.000000 0.000000 10.000000 
#Beginning of Data. Separated by tabs
#Fr	Tx	Ty	Tz	Rx	Ry	Rz	SF
[Pinger_Root]
25 0.000000 0.000000 0.000000 -0.000075 -0.000000 -0.000020 0.000000
26 0.000000 0.000000 0.000000 -0.000075 -0.000000 -0.000020 0.000000
27 0.000000 0.000000 0.000000 -0.000075 -0.000000 -0.000020 0.000000
[Pelvis]
25 2213.498291 106.768616 3136.519775 -127.961845 -71.838814 120.996109 3840.407471
26 2233.352539 113.770042 3130.985840 -129.839828 -74.077347 123.127930 3847.581055
27 2252.046143 120.012466 3129.130127 -130.737625 -76.556053 124.256058 3857.145264
[L_Hip]
25 5.766392 125.831482 872.656799 160.158691 -45.484905 122.312202 881.701050
26 5.766392 125.831482 872.656799 160.158691 -45.484905 122.312202 881.701050
27 5.766392 125.831482 872.656799 160.158691 -45.484905 122.312202 881.701050
[R_Hip]
25 5.765438 125.836372 -872.654907 38.087841 49.812687 125.703735 881.699829
26 5.765438 125.836372 -872.654907 38.087830 49.812672 125.703735 881.699829
27 5.765438 125.836372 -872.654907 38.087845 49.812691 125.703735 881.699829
[Rear_Leg01]
25 -192.298416 -925.602966 -0.001907 175.711700 -20.486372 -161.014587 945.367432
26 -192.298416 -925.602966 -0.001907 176.685501 -19.275585 -158.515823 945.367432
27 -192.298416 -925.602966 -0.001907 177.078217 -18.522516 -156.124512 945.367432
[Spine1]
25 290.604584 5.007505 0.000477 -13.820117 32.207874 2.334954 290.647736
26 290.604584 5.007505 0.000477 -13.690178 31.767620 3.086057 290.647736
27 290.604584 5.007505 0.000477 -14.356824 31.625210 2.443277 290.647736
[L_Leg01]
25 761.932007 -0.002384 -0.069261 33.582211 -18.729841 39.004410 761.932068
26 761.932007 -0.002384 -0.069261 34.911953 -19.116755 35.894974 761.932068
27 761.932007 -0.002384 -0.069261 35.718880 -19.306332 32.224380 761.932068
[L_Leg02]
25 1441.140503 -0.000954 -0.000715 2.838988 -0.187283 -131.193848 1441.140503
26 1441.140503 -0.000954 -0.000715 2.823166 -0.189531 -131.036453 1441.140503
27 1441.140503 -0.000954 -0.000715 2.764170 -0.187189 -130.487335 1441.140503
[L_Leg03]
25 1686.963989 -0.000715 -0.000954 -0.029921 0.014767 118.320518 1686.963989
26 1686.963989 -0.000715 -0.000954 -0.029921 0.014767 118.321938 1686.963989
27 1686.963989 -0.000715 -0.000954 -0.029921 0.014767 118.323395 1686.963989
[L_Foot]
25 3041.570068 -30.715107 11.297464 -22.769859 18.515081 17.899179 3041.746094
26 3041.570068 -30.715107 11.297464 -22.915184 18.742281 18.391539 3041.746094
27 3041.570068 -30.715107 11.297464 -22.699863 19.014414 18.956701 3041.746094
[L_Toe1_01]
25 -188.216690 -224.732346 -21.137953 93.699837 -6.671199 -171.720230 293.899567
26 -188.216690 -224.732346 -21.137953 93.672195 -6.716247 -171.423523 293.899567
27 -188.216690 -224.732346 -21.137953 93.644302 -6.761150 -171.126740 293.899567
[L_Toe2_01]
25 200.746536 -219.926590 148.838394 -90.025703 -26.042011 -52.866951 332.896027
26 200.746536 -219.926590 148.838394 -89.901405 -26.026983 -53.170734 332.896027
27 200.746536 -219.926590 148.838394 -89.777199 -26.011364 -53.474438 332.896027
[L_Toe3_01]
25 188.832520 -219.859131 -191.078659 -99.925484 13.980466 -68.077316 347.140900
26 188.832520 -219.859131 -191.078659 -99.946861 13.860171 -68.370483 347.140900
27 188.832520 -219.859131 -191.078659 -99.967583 13.739769 -68.663445 347.140900
[planeAlignerLeft]
25 0.812531 -811.448792 -0.314951 0.000000 -90.000000 -90.001900 811.449280
26 0.812531 -811.448792 -0.314951 0.000000 -90.000000 -90.001900 811.449280
27 0.812531 -811.448792 -0.314951 0.000000 -90.000000 -90.001900 811.449280
[L_Toe1_02]
25 413.761139 0.000477 0.000000 0.001384 -25.946955 0.001384 413.761139
26 413.761139 0.000477 0.000000 0.001384 -25.960491 0.001384 413.761139
27 413.761139 0.000477 0.000000 0.001384 -25.974024 0.001384 413.761139
[L_Toe1_03]
25 464.317322 0.000358 -0.000089 0.003714 53.162472 0.003714 464.317322
26 464.317322 0.000358 -0.000089 0.003676 52.766464 0.003676 464.317322
27 464.317322 0.000358 -0.000089 0.003639 52.370472 0.003639 464.317322
[L_Toe2_02]
25 342.235809 -0.000477 0.000238 0.001188 -72.439117 0.001188 342.235809
26 342.235809 -0.000477 0.000238 0.001188 -72.282806 0.001188 342.235809
27 342.235809 -0.000477 0.000238 0.001188 -72.126427 0.001188 342.235809
[L_Toe2_03]
25 420.210846 -0.000715 0.000000 0.029111 85.378952 0.029111 420.210846
26 420.210846 -0.000715 0.000000 0.026969 85.011589 0.026969 420.210846
27 420.210846 -0.000715 0.000000 0.025120 84.644264 0.025120 420.210846
[L_Toe3_02]
25 329.270111 0.000954 0.000000 0.001178 -80.360184 0.001178 329.270111
26 329.270111 0.000954 0.000000 0.001178 -80.257935 0.001178 329.270111
27 329.270111 0.000954 0.000000 0.001178 -80.155670 0.001178 329.270111
[L_Toe3_03]
25 439.137451 -0.001907 0.000954 -179.995575 79.324066 -179.992065 439.137451
26 439.137451 -0.001907 0.000954 -179.995316 79.754486 -179.991806 439.137451
27 439.137451 -0.001907 0.000954 -179.995178 79.984978 -179.991653 439.137451
[planeLockWeightLeft]
25 -0.000954 0.000238 -0.000305 -0.011826 -0.004376 0.005620 0.001029
26 -0.000954 0.000238 -0.000305 -0.011826 -0.004376 0.005620 0.001029
27 -0.000954 0.000238 -0.000305 -0.011826 -0.004376 0.005620 0.001029
[R_Leg01]
25 761.455627 -0.001907 -0.000358 101.321968 -43.412163 31.403509 761.455688
26 761.455627 -0.001907 -0.000358 98.516594 -40.477482 33.404701 761.455688
27 761.455627 -0.001907 -0.000358 96.117035 -38.090725 34.523129 761.455688
[R_Leg02]
25 1441.140625 0.000000 -0.000238 -3.407336 -1.535400 173.756485 1441.140625
26 1441.140625 0.000000 -0.000238 -3.407403 -1.535253 173.761444 1441.140625
27 1441.140625 0.000000 -0.000238 -3.423510 -1.543018 173.052933 1441.140625
[R_Leg03]
25 1686.963989 0.000954 0.001431 0.115246 -0.072139 142.280762 1686.963989
26 1686.963989 0.000954 0.001431 0.115246 -0.072139 142.280411 1686.963989
27 1686.963989 0.000954 0.001431 0.115246 -0.072139 142.280029 1686.963989
[R_Foot]
25 3041.560059 -30.531288 -11.204481 23.447630 -61.485870 64.977646 3041.734131
26 3041.560059 -30.531288 -11.204481 24.780199 -62.020794 64.837677 3041.734131
27 3041.560059 -30.531288 -11.204481 25.913942 -62.341904 64.736221 3041.734131
[planeAlignerRight]
25 -0.635147 -812.270569 -0.364304 0.000000 -89.960434 -90.005180 812.270874
26 -0.635147 -812.270569 -0.364304 0.000000 -89.960434 -90.005180 812.270874
27 -0.635147 -812.270569 -0.364304 0.000000 -89.960434 -90.005180 812.270874
[R_Toe1_01]
25 -188.383347 -224.864899 21.052242 76.339478 5.265393 179.967667 294.101532
26 -188.383347 -224.864899 21.052242 76.396294 4.679112 179.946793 294.101532
27 -188.383347 -224.864899 21.052242 76.334785 5.262962 179.962448 294.101532
[R_Toe2_01]
25 200.637817 -220.002121 -148.787384 -91.610466 41.497082 -53.831196 332.857574
26 200.637817 -220.002121 -148.787384 -91.278343 40.952274 -53.610008 332.857574
27 200.637817 -220.002121 -148.787384 -91.601334 41.495262 -53.822330 332.857574
[R_Toe3_01]
25 188.606735 -220.092957 191.126343 -75.690056 -5.379449 -62.441113 347.192566
26 188.606735 -220.092957 191.126343 -75.497444 -5.951876 -62.798187 347.192566
27 188.606735 -220.092957 191.126343 -75.689514 -5.388595 -62.447491 347.192566
[planeLockWeightRight]
25 -0.000477 0.000000 0.000000 -0.011823 -0.004379 -0.000027 0.000477
26 -0.000477 0.000000 0.000000 -0.011823 -0.004379 -0.000027 0.000477
27 -0.000477 0.000000 0.000000 -0.011823 -0.004379 -0.000027 0.000477
[R_Toe1_02]
25 413.762085 0.000477 -0.000119 0.001394 -24.650627 0.001394 413.762085
26 413.762085 0.000477 -0.000119 0.001395 -24.598736 0.001395 413.762085
27 413.762085 0.000477 -0.000119 0.001393 -24.769232 0.001393 413.762085
[R_Toe1_03]
25 464.317810 0.000000 0.001088 0.006584 69.464760 0.006584 464.317810
26 464.317810 0.000000 0.001088 0.006752 69.979279 0.006752 464.317810
27 464.317810 0.000000 0.001088 0.006589 69.478951 0.006589 464.317810
[R_Toe2_02]
25 342.234741 -0.000954 0.000238 0.001195 -68.467537 0.001195 342.234741
26 342.234741 -0.000954 0.000238 0.001194 -68.922180 0.001194 342.234741
27 342.234741 -0.000954 0.000238 0.001195 -68.478859 0.001195 342.234741
[R_Toe2_03]
25 420.210846 0.000715 -0.000268 0.009839 76.298119 0.009839 420.210846
26 420.210846 0.000715 -0.000268 0.010534 77.206558 0.010534 420.210846
27 420.210846 0.000715 -0.000268 0.009789 76.228943 0.009789 420.210846
[R_Toe3_02]
25 329.270355 -0.000477 -0.000954 0.001176 -82.113358 0.001176 329.270355
26 329.270355 -0.000477 -0.000954 0.001177 -81.952576 0.001177 329.270355
27 329.270355 -0.000477 -0.000954 0.001176 -82.211899 0.001176 329.270355
[R_Toe3_03]
25 439.137939 0.000238 0.001431 -179.998260 71.214584 -179.994705 439.137939
26 439.137939 0.000238 0.001431 -179.998093 72.044922 -179.994537 439.137939
27 439.137939 0.000238 0.001431 -179.998260 71.209381 -179.994705 439.137939
[Rear_Leg02]
25 1162.777710 -0.029802 0.005960 2.643783 -1.294405 -177.374588 1162.777710
26 1162.777710 -0.029802 0.005960 2.676687 -1.218112 -178.966431 1162.777710
27 1162.777710 -0.029802 0.005960 2.689694 -1.185475 -179.727707 1162.777710
[Rear_Leg03]
25 607.192505 -0.013351 -0.073195 0.009981 -0.006045 78.759644 607.192505
26 607.192505 -0.013351 -0.073195 0.009963 -0.006075 79.098747 607.192505
27 607.192505 -0.013351 -0.073195 0.009960 -0.006079 79.154381 607.192505
[Rear_Leg04]
25 995.874512 -0.020504 -0.011921 -0.044077 -0.014896 96.812126 995.874573
26 995.874512 -0.020504 -0.011921 -0.044219 -0.014470 97.918396 995.874573
27 995.874512 -0.020504 -0.011921 -0.044285 -0.014267 98.441933 995.874573
[Rear_Foot]
25 3096.176270 -0.067472 -0.041425 -168.539841 79.096870 33.129723 3096.176270
26 3096.176270 -0.067472 -0.041425 -167.927094 79.753662 34.596577 3096.176270
27 3096.176270 -0.067472 -0.041425 -168.544296 79.287926 34.520470 3096.176270
[planeAlignerCenter]
25 0.350077 0.966311 -838.790894 0.000009 0.000003 -179.999985 838.791565
26 0.350077 0.966311 -838.790894 0.000009 0.000003 -179.999985 838.791565
27 0.350077 0.966311 -838.790894 0.000009 0.000003 -179.999985 838.791565
[Rear_Toe1_01]
25 0.653352 83.966492 -371.173737 0.293738 41.912716 90.408386 380.553192
26 0.653352 83.966492 -371.173737 0.293749 41.912663 90.408417 380.553192
27 0.653352 83.966492 -371.173737 0.293763 41.912601 90.408440 380.553192
[Rear_Toe2_01]
25 178.200760 -294.826019 -362.060547 -7.197123 34.405739 -66.271461 499.765686
26 178.200760 -294.826019 -362.060547 -7.197153 34.405704 -66.271439 499.765686
27 178.200760 -294.826019 -362.060547 -7.197192 34.405693 -66.271461 499.765686
[Rear_Toe3_01]
25 -153.359680 -308.780914 -362.060852 3.289602 33.516670 -112.541222 499.952881
26 -153.359680 -308.780914 -362.060852 3.289606 33.516617 -112.541237 499.952881
27 -153.359680 -308.780914 -362.060852 3.289613 33.516560 -112.541245 499.952881
[planeLockWeightCenter]
25 -0.000062 0.000238 0.000000 -0.011814 -0.004373 -0.000015 0.000246
26 -0.000062 0.000238 0.000000 -0.011814 -0.004373 -0.000015 0.000246
27 -0.000062 0.000238 0.000000 -0.011814 -0.004373 -0.000015 0.000246
[Rear_Toe1_02]
25 379.707825 0.194073 0.000477 -0.000242 -31.677704 0.006934 379.707855
26 379.707825 0.194073 0.000477 -0.000242 -31.677752 0.006934 379.707855
27 379.707825 0.194073 0.000477 -0.000242 -31.677795 0.006934 379.707855
[Rear_Toe1_03]
25 500.129700 0.165701 0.000119 -0.000103 51.905567 0.007295 500.129761
26 500.129700 0.165701 0.000119 -0.000103 51.905708 0.007295 500.129761
27 500.129700 0.165701 0.000119 -0.000103 51.905830 0.007295 500.129761
[Rear_Toe2_02]
25 340.494507 0.000238 -0.000954 0.001192 -69.855659 0.001192 340.494507
26 340.494507 0.000238 -0.000954 0.001192 -69.855682 0.001192 340.494507
27 340.494507 0.000238 -0.000954 0.001192 -69.855751 0.001192 340.494507
[Rear_Toe2_03]
25 433.103577 0.000000 0.000238 0.006696 69.811432 0.006696 433.103546
26 433.103577 0.000000 0.000238 0.006696 69.811485 0.006696 433.103546
27 433.103577 0.000000 0.000238 0.006696 69.811539 0.006696 433.103546
[Rear_Toe3_02]
25 340.494141 -0.000358 -0.000477 0.008288 -67.275818 -0.009461 340.494171
26 340.494141 -0.000358 -0.000477 0.008288 -67.275879 -0.009461 340.494171
27 340.494141 -0.000358 -0.000477 0.008288 -67.275932 -0.009461 340.494171
[Rear_Toe3_03]
25 433.103577 0.001431 -0.000238 -0.000972 65.958961 -0.004547 433.103546
26 433.103577 0.001431 -0.000238 -0.000972 65.958984 -0.004547 433.103546
27 433.103577 0.001431 -0.000238 -0.000972 65.958984 -0.004547 433.103546
[Back_Bone]
25 1312.175781 -701.934692 0.000954 0.000023 -0.000007 -85.606667 1488.125488
26 1312.175781 -701.934692 0.000954 0.000023 -0.000007 -85.606667 1488.125488
27 1312.175781 -701.934692 0.000954 0.000023 -0.000007 -85.606667 1488.125488
[Head]
25 1406.159424 809.709290 0.001431 0.000431 -1.387736 21.464201 1622.625488
26 1406.159424 809.709290 0.001431 0.000895 -2.683669 19.558123 1622.625488
27 1406.159424 809.709290 0.001431 0.001882 -3.558168 17.746965 1622.625488
[Motor_Bone]
25 1158.364380 -417.834747 0.000477 -6.397747 13.619150 -98.445839 1231.419434
26 1158.364380 -417.834747 0.000477 -5.098394 12.837710 -99.233521 1231.419434
27 1158.364380 -417.834747 0.000477 -4.170505 10.775175 -99.874680 1231.419434
[Ping_Mechanism]
25 1233.986816 -433.619690 -7.914123 0.000103 -0.000053 82.120995 1307.980225
26 1233.942261 -434.004822 -7.994308 0.000103 -0.000053 82.120995 1308.066406
27 1233.897705 -434.389954 -8.074493 0.000103 -0.000053 82.120995 1308.152588
[BN_LookIK]
25 193.241119 1380.371704 -0.002861 0.000000 89.965736 -31.038179 1393.832153
26 193.241119 1380.371704 -0.002861 0.000000 89.965736 -31.038179 1393.832153
27 193.241119 1380.371704 -0.002861 0.000000 89.965736 -31.038179 1393.832153
[bottomMouth]
25 -435.092926 615.759399 -0.000954 -0.000022 0.000016 73.527184 753.966492
26 -435.092926 615.759399 -0.000954 -0.000022 0.000016 73.527184 753.966492
27 -435.092926 615.759399 -0.000954 -0.000022 0.000016 73.527184 753.966492
[L_Mouth01]
25 554.440979 7.658243 838.222046 150.204178 23.759130 109.605339 1005.027161
26 554.440979 7.658243 838.222046 150.204178 23.759130 109.605339 1005.027161
27 554.440979 7.658243 838.222046 150.204178 23.759130 109.605339 1005.027161
[L_mouthFront]
25 551.629089 934.514771 339.150421 0.000081 2.804060 79.119301 1136.941284
26 551.629089 934.514771 339.150421 0.000081 2.804060 79.119301 1136.941284
27 551.629089 934.514771 339.150421 0.000081 2.804060 79.119301 1136.941284
[mouthGun]
25 55.332661 1627.420898 0.000000 0.000023 0.000009 -11.038128 1628.361328
26 55.332661 1627.420898 0.000000 0.000023 0.000009 -11.038128 1628.361328
27 55.332661 1627.420898 0.000000 0.000023 0.000009 -11.038128 1628.361328
[R_Mouth01]
25 554.442383 7.659197 -838.223938 29.795891 -23.759109 109.605331 1005.029541
26 554.442383 7.659197 -838.223938 29.795891 -23.759109 109.605331 1005.029541
27 554.442383 7.659197 -838.223938 29.795891 -23.759109 109.605331 1005.029541
[R_mouthFront]
25 551.629089 934.514282 -339.151367 0.000029 -2.803930 79.119133 1136.941162
26 551.629089 934.514282 -339.151367 0.000029 -2.803930 79.119133 1136.941162
27 551.629089 934.514282 -339.151367 0.000029 -2.803930 79.119133 1136.941162
[TopMouth]
25 461.269867 -56.106091 -0.008583 -0.000059 -0.000268 92.025169 464.669525
26 461.269867 -56.106091 -0.008583 -0.000059 -0.000268 92.025169 464.669525
27 461.269867 -56.106091 -0.008583 -0.000059 -0.000268 92.025169 464.669525
[weapon_bone]
25 -987.239868 1448.372803 0.001431 0.000000 89.965736 -31.038221 1752.833740
26 -987.239868 1448.372803 0.001431 0.000000 89.965736 -31.038221 1752.833740
27 -987.239868 1448.372803 0.001431 0.000000 89.965736 -31.038221 1752.833740
